<mxfile host="app.diagrams.net" agent="Mozilla/5.0 (X11; Linux x86_64) AppleWebKit/537.36 (KHTML, like Gecko) Chrome/137.0.0.0 Safari/537.36" version="28.0.7">
  <diagram name="Page-1" id="DskkGwt-4vXpa6-m0Ip0">
    <mxGraphModel dx="4132" dy="1582" grid="1" gridSize="10" guides="1" tooltips="1" connect="1" arrows="1" fold="1" page="1" pageScale="1" pageWidth="850" pageHeight="1100" math="0" shadow="0">
      <root>
        <mxCell id="0" />
        <mxCell id="1" parent="0" />
        <mxCell id="bCMVPlpvOJfAMpXNOe3J-1" value="" style="rounded=0;whiteSpace=wrap;html=1;fontSize=21;" vertex="1" parent="1">
          <mxGeometry x="481.4300000000003" y="361" width="2520" height="80" as="geometry" />
        </mxCell>
        <mxCell id="bCMVPlpvOJfAMpXNOe3J-2" value="" style="rounded=0;whiteSpace=wrap;html=1;fontSize=21;" vertex="1" parent="1">
          <mxGeometry x="481.4300000000003" y="441" width="80" height="2800" as="geometry" />
        </mxCell>
        <mxCell id="bCMVPlpvOJfAMpXNOe3J-3" value="" style="rounded=0;whiteSpace=wrap;html=1;fillColor=#1ba1e2;fontColor=#ffffff;strokeColor=#006EAF;fontSize=21;" vertex="1" parent="1">
          <mxGeometry x="561.4300000000003" y="361" width="80" height="30" as="geometry" />
        </mxCell>
        <mxCell id="bCMVPlpvOJfAMpXNOe3J-4" value="" style="endArrow=block;html=1;rounded=0;startArrow=block;startFill=1;endFill=1;fontSize=21;" edge="1" parent="1" source="bCMVPlpvOJfAMpXNOe3J-7">
          <mxGeometry width="50" height="50" relative="1" as="geometry">
            <mxPoint x="481.4300000000003" y="347" as="sourcePoint" />
            <mxPoint x="3001.4300000000003" y="347" as="targetPoint" />
          </mxGeometry>
        </mxCell>
        <mxCell id="bCMVPlpvOJfAMpXNOe3J-5" value="" style="endArrow=none;html=1;rounded=0;strokeWidth=4;fillColor=#60a917;strokeColor=#2D7600;fontSize=21;" edge="1" parent="1">
          <mxGeometry width="50" height="50" relative="1" as="geometry">
            <mxPoint x="500.4300000000003" y="361" as="sourcePoint" />
            <mxPoint x="550.4300000000003" y="361" as="targetPoint" />
          </mxGeometry>
        </mxCell>
        <mxCell id="bCMVPlpvOJfAMpXNOe3J-6" value="" style="endArrow=block;html=1;rounded=0;startArrow=block;startFill=1;endFill=1;fontSize=21;" edge="1" parent="1" target="bCMVPlpvOJfAMpXNOe3J-7">
          <mxGeometry width="50" height="50" relative="1" as="geometry">
            <mxPoint x="481.4300000000003" y="347" as="sourcePoint" />
            <mxPoint x="3001.4300000000003" y="347" as="targetPoint" />
          </mxGeometry>
        </mxCell>
        <mxCell id="bCMVPlpvOJfAMpXNOe3J-7" value="63m" style="text;html=1;align=center;verticalAlign=middle;whiteSpace=wrap;rounded=0;fontSize=21;" vertex="1" parent="1">
          <mxGeometry x="1568.0000000000005" y="331" width="60" height="30" as="geometry" />
        </mxCell>
        <mxCell id="bCMVPlpvOJfAMpXNOe3J-8" value="" style="endArrow=block;html=1;rounded=0;startArrow=block;startFill=1;endFill=1;fontSize=21;" edge="1" parent="1">
          <mxGeometry width="50" height="50" relative="1" as="geometry">
            <mxPoint x="450" y="361" as="sourcePoint" />
            <mxPoint x="450" y="441" as="targetPoint" />
          </mxGeometry>
        </mxCell>
        <mxCell id="bCMVPlpvOJfAMpXNOe3J-9" value="1.2m" style="text;html=1;align=center;verticalAlign=middle;whiteSpace=wrap;rounded=0;fontSize=21;" vertex="1" parent="1">
          <mxGeometry x="398" y="381" width="60" height="30" as="geometry" />
        </mxCell>
        <mxCell id="bCMVPlpvOJfAMpXNOe3J-10" value="" style="endArrow=block;html=1;rounded=0;startArrow=block;startFill=1;endFill=1;fontSize=21;" edge="1" parent="1">
          <mxGeometry width="50" height="50" relative="1" as="geometry">
            <mxPoint x="468.0500000000002" y="361" as="sourcePoint" />
            <mxPoint x="468.4300000000003" y="3241" as="targetPoint" />
          </mxGeometry>
        </mxCell>
        <mxCell id="bCMVPlpvOJfAMpXNOe3J-11" value="72m" style="text;html=1;align=center;verticalAlign=middle;whiteSpace=wrap;rounded=0;fontSize=21;" vertex="1" parent="1">
          <mxGeometry x="408.6199999999999" y="1464" width="60" height="30" as="geometry" />
        </mxCell>
        <mxCell id="bCMVPlpvOJfAMpXNOe3J-12" value="" style="endArrow=block;html=1;rounded=0;startArrow=block;startFill=1;endFill=1;fontSize=21;" edge="1" parent="1">
          <mxGeometry width="50" height="50" relative="1" as="geometry">
            <mxPoint x="543.6199999999999" y="361" as="sourcePoint" />
            <mxPoint x="544.4300000000003" y="391" as="targetPoint" />
          </mxGeometry>
        </mxCell>
        <mxCell id="bCMVPlpvOJfAMpXNOe3J-13" value="0.5m" style="text;html=1;align=center;verticalAlign=middle;whiteSpace=wrap;rounded=0;fontSize=21;" vertex="1" parent="1">
          <mxGeometry x="501.3800000000001" y="361" width="35" height="30" as="geometry" />
        </mxCell>
        <mxCell id="bCMVPlpvOJfAMpXNOe3J-14" value="" style="rounded=0;whiteSpace=wrap;html=1;fillColor=#1ba1e2;fontColor=#ffffff;strokeColor=#006EAF;fontSize=21;" vertex="1" parent="1">
          <mxGeometry x="961.0000000000003" y="361" width="80" height="30" as="geometry" />
        </mxCell>
        <mxCell id="bCMVPlpvOJfAMpXNOe3J-15" value="" style="endArrow=none;html=1;rounded=0;strokeWidth=4;fillColor=#60a917;strokeColor=#2D7600;fontSize=21;" edge="1" parent="1">
          <mxGeometry width="50" height="50" relative="1" as="geometry">
            <mxPoint x="900.0000000000003" y="361" as="sourcePoint" />
            <mxPoint x="950.0000000000003" y="361" as="targetPoint" />
          </mxGeometry>
        </mxCell>
        <mxCell id="bCMVPlpvOJfAMpXNOe3J-18" value="" style="rounded=0;whiteSpace=wrap;html=1;fillColor=#1ba1e2;fontColor=#ffffff;strokeColor=#006EAF;fontSize=21;" vertex="1" parent="1">
          <mxGeometry x="1357.4299999999998" y="361" width="80" height="30" as="geometry" />
        </mxCell>
        <mxCell id="bCMVPlpvOJfAMpXNOe3J-19" value="" style="endArrow=none;html=1;rounded=0;strokeWidth=4;fillColor=#60a917;strokeColor=#2D7600;fontSize=21;" edge="1" parent="1">
          <mxGeometry width="50" height="50" relative="1" as="geometry">
            <mxPoint x="1296.4299999999998" y="361" as="sourcePoint" />
            <mxPoint x="1346.4299999999998" y="361" as="targetPoint" />
          </mxGeometry>
        </mxCell>
        <mxCell id="bCMVPlpvOJfAMpXNOe3J-22" value="" style="rounded=0;whiteSpace=wrap;html=1;fillColor=#1ba1e2;fontColor=#ffffff;strokeColor=#006EAF;fontSize=21;" vertex="1" parent="1">
          <mxGeometry x="1828.4300000000003" y="361" width="80" height="30" as="geometry" />
        </mxCell>
        <mxCell id="bCMVPlpvOJfAMpXNOe3J-23" value="" style="endArrow=none;html=1;rounded=0;strokeWidth=4;fillColor=#60a917;strokeColor=#2D7600;fontSize=21;" edge="1" parent="1">
          <mxGeometry width="50" height="50" relative="1" as="geometry">
            <mxPoint x="1767.4300000000003" y="361" as="sourcePoint" />
            <mxPoint x="1817.4300000000003" y="361" as="targetPoint" />
          </mxGeometry>
        </mxCell>
        <mxCell id="bCMVPlpvOJfAMpXNOe3J-26" value="" style="rounded=0;whiteSpace=wrap;html=1;fillColor=#1ba1e2;fontColor=#ffffff;strokeColor=#006EAF;fontSize=21;" vertex="1" parent="1">
          <mxGeometry x="2183.3100000000004" y="361" width="80" height="30" as="geometry" />
        </mxCell>
        <mxCell id="bCMVPlpvOJfAMpXNOe3J-27" value="" style="endArrow=none;html=1;rounded=0;strokeWidth=4;fillColor=#60a917;strokeColor=#2D7600;fontSize=21;" edge="1" parent="1">
          <mxGeometry width="50" height="50" relative="1" as="geometry">
            <mxPoint x="2122.3100000000004" y="361" as="sourcePoint" />
            <mxPoint x="2172.3100000000004" y="361" as="targetPoint" />
          </mxGeometry>
        </mxCell>
        <mxCell id="bCMVPlpvOJfAMpXNOe3J-30" value="" style="rounded=0;whiteSpace=wrap;html=1;fillColor=#1ba1e2;fontColor=#ffffff;strokeColor=#006EAF;fontSize=21;" vertex="1" parent="1">
          <mxGeometry x="2509.4300000000003" y="361" width="80" height="30" as="geometry" />
        </mxCell>
        <mxCell id="bCMVPlpvOJfAMpXNOe3J-31" value="" style="endArrow=none;html=1;rounded=0;strokeWidth=4;fillColor=#60a917;strokeColor=#2D7600;fontSize=21;" edge="1" parent="1">
          <mxGeometry width="50" height="50" relative="1" as="geometry">
            <mxPoint x="2448.4300000000003" y="361" as="sourcePoint" />
            <mxPoint x="2498.4300000000003" y="361" as="targetPoint" />
          </mxGeometry>
        </mxCell>
        <mxCell id="bCMVPlpvOJfAMpXNOe3J-34" value="" style="rounded=0;whiteSpace=wrap;html=1;fillColor=#1ba1e2;fontColor=#ffffff;strokeColor=#006EAF;fontSize=21;" vertex="1" parent="1">
          <mxGeometry x="2842.6200000000003" y="361" width="80" height="30" as="geometry" />
        </mxCell>
        <mxCell id="bCMVPlpvOJfAMpXNOe3J-35" value="" style="endArrow=none;html=1;rounded=0;strokeWidth=4;fillColor=#60a917;strokeColor=#2D7600;fontSize=21;" edge="1" parent="1">
          <mxGeometry width="50" height="50" relative="1" as="geometry">
            <mxPoint x="2781.6200000000003" y="361" as="sourcePoint" />
            <mxPoint x="2831.6200000000003" y="361" as="targetPoint" />
          </mxGeometry>
        </mxCell>
        <mxCell id="bCMVPlpvOJfAMpXNOe3J-38" value="" style="rounded=0;whiteSpace=wrap;html=1;rotation=-90;fillColor=#1ba1e2;fontColor=#ffffff;strokeColor=#006EAF;fontSize=21;" vertex="1" parent="1">
          <mxGeometry x="456.38000000000045" y="517" width="80" height="30" as="geometry" />
        </mxCell>
        <mxCell id="bCMVPlpvOJfAMpXNOe3J-39" value="" style="endArrow=none;html=1;rounded=0;strokeWidth=4;fillColor=#60a917;strokeColor=#2D7600;fontSize=21;" edge="1" parent="1">
          <mxGeometry width="50" height="50" relative="1" as="geometry">
            <mxPoint x="481.43" y="617" as="sourcePoint" />
            <mxPoint x="481.7300000000004" y="577" as="targetPoint" />
          </mxGeometry>
        </mxCell>
        <mxCell id="bCMVPlpvOJfAMpXNOe3J-42" value="" style="rounded=0;whiteSpace=wrap;html=1;rotation=-90;fillColor=#1ba1e2;fontColor=#ffffff;strokeColor=#006EAF;fontSize=21;" vertex="1" parent="1">
          <mxGeometry x="456.38000000000045" y="780" width="80" height="30" as="geometry" />
        </mxCell>
        <mxCell id="bCMVPlpvOJfAMpXNOe3J-43" value="" style="endArrow=none;html=1;rounded=0;strokeWidth=4;fillColor=#60a917;strokeColor=#2D7600;fontSize=21;" edge="1" parent="1">
          <mxGeometry width="50" height="50" relative="1" as="geometry">
            <mxPoint x="481.43" y="880" as="sourcePoint" />
            <mxPoint x="481.7300000000004" y="840" as="targetPoint" />
          </mxGeometry>
        </mxCell>
        <mxCell id="bCMVPlpvOJfAMpXNOe3J-44" value="" style="rounded=0;whiteSpace=wrap;html=1;rotation=-90;fillColor=#1ba1e2;fontColor=#ffffff;strokeColor=#006EAF;fontSize=21;" vertex="1" parent="1">
          <mxGeometry x="456.38000000000045" y="1100" width="80" height="30" as="geometry" />
        </mxCell>
        <mxCell id="bCMVPlpvOJfAMpXNOe3J-45" value="" style="endArrow=none;html=1;rounded=0;strokeWidth=4;fillColor=#60a917;strokeColor=#2D7600;fontSize=21;" edge="1" parent="1">
          <mxGeometry width="50" height="50" relative="1" as="geometry">
            <mxPoint x="481.43" y="1200" as="sourcePoint" />
            <mxPoint x="481.7300000000004" y="1160" as="targetPoint" />
          </mxGeometry>
        </mxCell>
        <mxCell id="bCMVPlpvOJfAMpXNOe3J-46" value="" style="rounded=0;whiteSpace=wrap;html=1;rotation=-90;fillColor=#1ba1e2;fontColor=#ffffff;strokeColor=#006EAF;fontSize=21;" vertex="1" parent="1">
          <mxGeometry x="456.38000000000045" y="1450" width="80" height="30" as="geometry" />
        </mxCell>
        <mxCell id="bCMVPlpvOJfAMpXNOe3J-47" value="" style="endArrow=none;html=1;rounded=0;strokeWidth=4;fillColor=#60a917;strokeColor=#2D7600;fontSize=21;" edge="1" parent="1">
          <mxGeometry width="50" height="50" relative="1" as="geometry">
            <mxPoint x="481.43" y="1550" as="sourcePoint" />
            <mxPoint x="481.7300000000004" y="1510" as="targetPoint" />
          </mxGeometry>
        </mxCell>
        <mxCell id="bCMVPlpvOJfAMpXNOe3J-48" value="" style="rounded=0;whiteSpace=wrap;html=1;rotation=-90;fillColor=#1ba1e2;fontColor=#ffffff;strokeColor=#006EAF;fontSize=21;" vertex="1" parent="1">
          <mxGeometry x="456.38000000000045" y="1860" width="80" height="30" as="geometry" />
        </mxCell>
        <mxCell id="bCMVPlpvOJfAMpXNOe3J-49" value="" style="endArrow=none;html=1;rounded=0;strokeWidth=4;fillColor=#60a917;strokeColor=#2D7600;fontSize=21;" edge="1" parent="1">
          <mxGeometry width="50" height="50" relative="1" as="geometry">
            <mxPoint x="481.43" y="1960" as="sourcePoint" />
            <mxPoint x="481.7300000000004" y="1920" as="targetPoint" />
          </mxGeometry>
        </mxCell>
        <mxCell id="bCMVPlpvOJfAMpXNOe3J-50" value="" style="rounded=0;whiteSpace=wrap;html=1;rotation=-90;fillColor=#1ba1e2;fontColor=#ffffff;strokeColor=#006EAF;fontSize=21;" vertex="1" parent="1">
          <mxGeometry x="458.00000000000045" y="2250" width="80" height="30" as="geometry" />
        </mxCell>
        <mxCell id="bCMVPlpvOJfAMpXNOe3J-51" value="" style="endArrow=none;html=1;rounded=0;strokeWidth=4;fillColor=#60a917;strokeColor=#2D7600;fontSize=21;" edge="1" parent="1">
          <mxGeometry width="50" height="50" relative="1" as="geometry">
            <mxPoint x="483.05" y="2350" as="sourcePoint" />
            <mxPoint x="483.3500000000004" y="2310" as="targetPoint" />
          </mxGeometry>
        </mxCell>
        <mxCell id="bCMVPlpvOJfAMpXNOe3J-52" value="" style="rounded=0;whiteSpace=wrap;html=1;rotation=-90;fillColor=#1ba1e2;fontColor=#ffffff;strokeColor=#006EAF;fontSize=21;" vertex="1" parent="1">
          <mxGeometry x="456.38000000000045" y="2640" width="80" height="30" as="geometry" />
        </mxCell>
        <mxCell id="bCMVPlpvOJfAMpXNOe3J-53" value="" style="endArrow=none;html=1;rounded=0;strokeWidth=4;fillColor=#60a917;strokeColor=#2D7600;fontSize=21;" edge="1" parent="1">
          <mxGeometry width="50" height="50" relative="1" as="geometry">
            <mxPoint x="481.43" y="2740" as="sourcePoint" />
            <mxPoint x="481.7300000000004" y="2700" as="targetPoint" />
          </mxGeometry>
        </mxCell>
        <mxCell id="bCMVPlpvOJfAMpXNOe3J-56" value="" style="rounded=0;whiteSpace=wrap;html=1;rotation=-90;fillColor=#1ba1e2;fontColor=#ffffff;strokeColor=#006EAF;fontSize=21;" vertex="1" parent="1">
          <mxGeometry x="456.38000000000045" y="3020" width="80" height="30" as="geometry" />
        </mxCell>
        <mxCell id="bCMVPlpvOJfAMpXNOe3J-57" value="" style="endArrow=none;html=1;rounded=0;strokeWidth=4;fillColor=#60a917;strokeColor=#2D7600;fontSize=21;" edge="1" parent="1">
          <mxGeometry width="50" height="50" relative="1" as="geometry">
            <mxPoint x="481.43" y="3120" as="sourcePoint" />
            <mxPoint x="481.7300000000004" y="3080" as="targetPoint" />
          </mxGeometry>
        </mxCell>
        <mxCell id="bCMVPlpvOJfAMpXNOe3J-58" value="" style="endArrow=block;html=1;rounded=0;startArrow=block;startFill=1;endFill=1;fontSize=21;" edge="1" parent="1">
          <mxGeometry width="50" height="50" relative="1" as="geometry">
            <mxPoint x="455.05" y="880" as="sourcePoint" />
            <mxPoint x="455" y="1070" as="targetPoint" />
          </mxGeometry>
        </mxCell>
        <mxCell id="bCMVPlpvOJfAMpXNOe3J-59" value="??" style="text;html=1;align=center;verticalAlign=middle;whiteSpace=wrap;rounded=0;fontSize=21;" vertex="1" parent="1">
          <mxGeometry x="408.62" y="950" width="60" height="30" as="geometry" />
        </mxCell>
        <mxCell id="bCMVPlpvOJfAMpXNOe3J-60" value="" style="endArrow=block;html=1;rounded=0;startArrow=block;startFill=1;endFill=1;fontSize=21;" edge="1" parent="1">
          <mxGeometry width="50" height="50" relative="1" as="geometry">
            <mxPoint x="495.76" y="570" as="sourcePoint" />
            <mxPoint x="496" y="620" as="targetPoint" />
          </mxGeometry>
        </mxCell>
        <mxCell id="bCMVPlpvOJfAMpXNOe3J-61" value="0.8m" style="text;html=1;align=center;verticalAlign=middle;whiteSpace=wrap;rounded=0;fontSize=21;" vertex="1" parent="1">
          <mxGeometry x="491.43" y="580" width="60" height="30" as="geometry" />
        </mxCell>
        <mxCell id="bCMVPlpvOJfAMpXNOe3J-62" value="" style="endArrow=none;html=1;rounded=0;strokeWidth=4;fillColor=#60a917;strokeColor=#2D7600;fontSize=21;" edge="1" parent="1">
          <mxGeometry width="50" height="50" relative="1" as="geometry">
            <mxPoint x="519.97" y="579" as="sourcePoint" />
            <mxPoint x="481.4300000000004" y="579" as="targetPoint" />
          </mxGeometry>
        </mxCell>
        <mxCell id="bCMVPlpvOJfAMpXNOe3J-63" value="" style="endArrow=block;html=1;rounded=0;startArrow=block;startFill=1;endFill=1;fontSize=21;" edge="1" parent="1">
          <mxGeometry width="50" height="50" relative="1" as="geometry">
            <mxPoint x="481.43" y="460" as="sourcePoint" />
            <mxPoint x="561.4300000000001" y="461" as="targetPoint" />
          </mxGeometry>
        </mxCell>
        <mxCell id="bCMVPlpvOJfAMpXNOe3J-64" value="1.2m" style="text;html=1;align=center;verticalAlign=middle;whiteSpace=wrap;rounded=0;fontSize=21;" vertex="1" parent="1">
          <mxGeometry x="488.88" y="460" width="60" height="30" as="geometry" />
        </mxCell>
        <mxCell id="bCMVPlpvOJfAMpXNOe3J-65" value="" style="endArrow=block;html=1;rounded=0;startArrow=block;startFill=1;endFill=1;fontSize=21;" edge="1" parent="1">
          <mxGeometry width="50" height="50" relative="1" as="geometry">
            <mxPoint x="900" y="330" as="sourcePoint" />
            <mxPoint x="641.43" y="331" as="targetPoint" />
          </mxGeometry>
        </mxCell>
        <mxCell id="bCMVPlpvOJfAMpXNOe3J-66" value="??" style="text;html=1;align=center;verticalAlign=middle;whiteSpace=wrap;rounded=0;fontSize=21;" vertex="1" parent="1">
          <mxGeometry x="730" y="301" width="60" height="30" as="geometry" />
        </mxCell>
        <mxCell id="bCMVPlpvOJfAMpXNOe3J-68" value="" style="rounded=0;whiteSpace=wrap;html=1;fillColor=#1ba1e2;fontColor=#ffffff;strokeColor=#006EAF;fontSize=21;" vertex="1" parent="1">
          <mxGeometry x="860" y="620" width="90" height="40" as="geometry" />
        </mxCell>
        <mxCell id="bCMVPlpvOJfAMpXNOe3J-69" value="Immovable area&lt;div&gt;&lt;br&gt;&lt;/div&gt;&lt;div&gt;Door (opens outside)&lt;/div&gt;" style="text;html=1;align=left;verticalAlign=top;whiteSpace=wrap;rounded=0;fontSize=21;" vertex="1" parent="1">
          <mxGeometry x="971" y="625" width="229" height="315" as="geometry" />
        </mxCell>
        <mxCell id="bCMVPlpvOJfAMpXNOe3J-70" value="" style="endArrow=none;html=1;rounded=0;strokeWidth=4;fillColor=#60a917;strokeColor=#2D7600;fontSize=21;" edge="1" parent="1">
          <mxGeometry width="50" height="50" relative="1" as="geometry">
            <mxPoint x="900.0000000000003" y="696" as="sourcePoint" />
            <mxPoint x="950.0000000000003" y="696" as="targetPoint" />
          </mxGeometry>
        </mxCell>
      </root>
    </mxGraphModel>
  </diagram>
</mxfile>
